<?xml version="1.0" encoding="utf-8"?>
<!-- Generator: Adobe Illustrator 24.3.0, SVG Export Plug-In . SVG Version: 6.00 Build 0)  -->
<svg version="1.1" id="Layer_1" xmlns="http://www.w3.org/2000/svg" xmlns:xlink="http://www.w3.org/1999/xlink" x="0px" y="0px"
	 viewBox="0 0 1616.3 244.8" style="enable-background:new 0 0 1616.3 244.8;" xml:space="preserve">
<style type="text/css">
	.st0{enable-background:new    ;}
	.st1{fill:#C83F4D;}
	.st2{fill:#F3B861;}
</style>
<g id="Layer_2_1_">
	<g id="Layer_1-2">
		<g class="st0">
			<path class="st1" d="M169.8,179.5c0,26.1-13.1,39.2-39.2,39.2H0V48.9h104.5h26.1c26.1,0,39.2,13.1,39.2,39.2v26.1
				c0,12.9-6.8,19.8-20.5,20.6c13.7-1.5,20.5,9.1,20.5,31.6V179.5z M39.2,114.2h78.4c8.7,0,13.1-4.4,13.1-13.1
				c0-8.7-4.4-13.1-13.1-13.1H39.2V114.2z M39.2,179.5h78.4c8.7,0,13.1-4.4,13.1-13.1c0-8.7-4.4-13.1-13.1-13.1H39.2V179.5z"/>
			<path class="st1" d="M349.4,179.5c0,26.1-13.1,39.2-39.2,39.2h-91.4c-26.1,0-39.2-13.1-39.2-39.2V88.1
				c0-26.1,13.1-39.2,39.2-39.2h91.4c26.1,0,39.2,13.1,39.2,39.2V179.5z M218.8,101.1v65.3c0,8.7,4.4,13.1,13.1,13.1h65.3
				c8.7,0,13.1-4.4,13.1-13.1v-65.3c0-8.7-4.4-13.1-13.1-13.1h-65.3C223.1,88.1,218.8,92.4,218.8,101.1z"/>
			<path class="st1" d="M359.2,218.7V48.9h130.6c26.1,0,39.2,13.1,39.2,39.2v26.1c0,26.1-13.1,39.2-39.2,39.2h-13.1l52.3,39.2v26.1
				h-22.5l-95.1-65.3h-13.1v65.3H359.2z M398.4,114.2h78.4c8.7,0,13.1-4.4,13.1-13.1c0-8.7-4.4-13.1-13.1-13.1h-78.4V114.2z"/>
			<path class="st1" d="M538.8,218.7V48.9h130.6c26.1,0,39.2,13.1,39.2,39.2v26.1c0,26.1-13.1,39.2-39.2,39.2h-13.1l52.3,39.2v26.1
				h-22.5L591,153.4H578v65.3H538.8z M578,114.2h78.4c8.7,0,13.1-4.4,13.1-13.1c0-8.7-4.4-13.1-13.1-13.1H578V114.2z"/>
			<path class="st1" d="M888.2,179.5c0,26.1-13.1,39.2-39.2,39.2h-91.4c-26.1,0-39.2-13.1-39.2-39.2V88.1
				c0-26.1,13.1-39.2,39.2-39.2H849c26.1,0,39.2,13.1,39.2,39.2V179.5z M757.6,101.1v65.3c0,8.7,4.4,13.1,13.1,13.1h65.3
				c8.7,0,13.1-4.4,13.1-13.1v-65.3c0-8.7-4.4-13.1-13.1-13.1h-65.3C761.9,88.1,757.6,92.4,757.6,101.1z"/>
			<path class="st1" d="M937.2,140.3l46.9-52.3l44.5,52.3V48.9h39.2v169.8h-39.2l-44.5-65.3l-46.9,65.3H898V48.9h39.2V140.3z"/>
		</g>
		<g class="st0">
			<path class="st2" d="M1247.4,179.5c0,26.1-13.1,39.2-39.2,39.2h-130.6V48.9h104.5h26.1c26.1,0,39.2,13.1,39.2,39.2v26.1
				c0,12.9-6.8,19.8-20.5,20.6c13.7-1.5,20.5,9.1,20.5,31.6V179.5z M1116.7,114.2h78.4c8.7,0,13.1-4.4,13.1-13.1
				c0-8.7-4.4-13.1-13.1-13.1h-78.4V114.2z M1116.7,179.5h78.4c8.7,0,13.1-4.4,13.1-13.1c0-8.7-4.4-13.1-13.1-13.1h-78.4V179.5z"/>
			<path class="st2" d="M1427,179.5c0,26.1-13.1,39.2-39.2,39.2h-91.4c-26.1,0-39.2-13.1-39.2-39.2V88.1c0-26.1,13.1-39.2,39.2-39.2
				h91.4c26.1,0,39.2,13.1,39.2,39.2V179.5z M1296.3,101.1v65.3c0,8.7,4.4,13.1,13.1,13.1h65.3c8.7,0,13.1-4.4,13.1-13.1v-65.3
				c0-8.7-4.4-13.1-13.1-13.1h-65.3C1300.7,88.1,1296.3,92.4,1296.3,101.1z"/>
			<path class="st2" d="M1436.7,48.9h33.3l52.3,52.3l50.9-52.3h33.3v31.4l-52.3,53.6l52.3,52.3v32.7h-32l-53.6-52.3l-50.3,52.3h-34
				v-33.3l52.3-52.3l-52.3-52.3V48.9z"/>
		</g>
	</g>
</g>
</svg>
